<svg width="25" height="24" viewBox="0 0 25 24" fill="none" xmlns="http://www.w3.org/2000/svg">
<path d="M21.002 10.192H18.112C15.742 10.192 13.812 8.26195 13.812 5.89195V3.00195C13.812 2.45195 13.362 2.00195 12.812 2.00195H8.57195C5.49195 2.00195 3.00195 4.00195 3.00195 7.57195V16.432C3.00195 20.002 5.49195 22.002 8.57195 22.002H16.432C19.512 22.002 22.002 20.002 22.002 16.432V11.192C22.002 10.642 21.552 10.192 21.002 10.192Z" fill="#265BA7"/>
<path d="M16.3016 2.21243C15.8916 1.80243 15.1816 2.08243 15.1816 2.65243V6.14243C15.1816 7.60243 16.4216 8.81244 17.9316 8.81244C18.8816 8.82244 20.2016 8.82243 21.3316 8.82243C21.9016 8.82243 22.2016 8.15243 21.8016 7.75243C20.3616 6.30243 17.7816 3.69243 16.3016 2.21243Z" fill="#265BA7"/>
<path d="M14.002 13.752H8.00195C7.59195 13.752 7.25195 13.412 7.25195 13.002C7.25195 12.592 7.59195 12.252 8.00195 12.252H14.002C14.412 12.252 14.752 12.592 14.752 13.002C14.752 13.412 14.412 13.752 14.002 13.752Z" fill="#E9EFF6"/>
<path d="M12.002 17.752H8.00195C7.59195 17.752 7.25195 17.412 7.25195 17.002C7.25195 16.592 7.59195 16.252 8.00195 16.252H12.002C12.412 16.252 12.752 16.592 12.752 17.002C12.752 17.412 12.412 17.752 12.002 17.752Z" fill="#E9EFF6"/>
</svg>
