<svg width="19" height="18" viewBox="0 0 19 18" fill="none" xmlns="http://www.w3.org/2000/svg">
<path d="M5.654 12.846L11.462 10.962L13.346 5.154L7.539 7.039L5.654 12.846ZM9.496 10.116C9.18467 10.116 8.92133 10.007 8.706 9.789C8.492 9.571 8.385 9.30667 8.385 8.996C8.385 8.68467 8.49367 8.42133 8.711 8.206C8.929 7.992 9.19333 7.885 9.504 7.885C9.81533 7.885 10.0787 7.99367 10.294 8.211C10.5087 8.429 10.616 8.69333 10.616 9.004C10.616 9.31533 10.507 9.57867 10.289 9.794C10.071 10.0087 9.80667 10.116 9.496 10.116ZM9.503 18C8.25833 18 7.08833 17.764 5.993 17.292C4.89767 16.8193 3.94467 16.178 3.134 15.368C2.32333 14.558 1.68167 13.606 1.209 12.512C0.736333 11.418 0.5 10.2483 0.5 9.003C0.5 7.75767 0.736333 6.58767 1.209 5.493C1.681 4.39767 2.32133 3.44467 3.13 2.634C3.93867 1.82333 4.891 1.18167 5.987 0.709C7.083 0.236333 8.253 0 9.497 0C10.741 0 11.911 0.236333 13.007 0.709C14.1023 1.181 15.0553 1.82167 15.866 2.631C16.6767 3.44033 17.3183 4.39267 17.791 5.488C18.2637 6.58333 18.5 7.753 18.5 8.997C18.5 10.241 18.264 11.411 17.792 12.507C17.32 13.603 16.6787 14.556 15.868 15.366C15.0573 16.176 14.1053 16.8177 13.012 17.291C11.9187 17.7643 10.749 18.0007 9.503 18Z" fill="white"/>
</svg>
