<svg width="45" height="45" viewBox="0 0 45 45" fill="none" xmlns="http://www.w3.org/2000/svg">
<rect width="45" height="45" rx="12" fill="#D61B72"/>
<path d="M24 16.7V20.5C21.21 20.55 20.05 21.71 20 24.5H16.2C13.2 24.5 12 23.3 12 20.3V16.7C12 13.7 13.2 12.5 16.2 12.5H19.8C22.8 12.5 24 13.7 24 16.7Z" stroke="white" stroke-width="1.5" stroke-linecap="round" stroke-linejoin="round"/>
<path d="M16.9602 16.3701C16.4302 16.0101 15.7302 16.0101 15.2002 16.3901" stroke="white" stroke-width="1.5" stroke-miterlimit="10" stroke-linecap="round" stroke-linejoin="round"/>
<path d="M20.9602 16.3701C20.4302 16.0101 19.7302 16.0101 19.2002 16.3901" stroke="white" stroke-width="1.5" stroke-miterlimit="10" stroke-linecap="round" stroke-linejoin="round"/>
<path d="M18.1598 21.9197H15.8398C15.5398 21.9197 15.2998 21.6796 15.2998 21.3796C15.2998 19.8896 16.5098 18.6797 17.9998 18.6797C18.6398 18.6797 19.2298 18.8997 19.6898 19.2697" stroke="white" stroke-width="1.5" stroke-miterlimit="10" stroke-linecap="round" stroke-linejoin="round"/>
<path d="M32 24.7V28.3C32 31.3 30.8 32.5 27.8 32.5H24.2C21.2 32.5 20 31.3 20 28.3V24.5C20.05 21.71 21.21 20.55 24 20.5H27.8C30.8 20.5 32 21.7 32 24.7Z" stroke="white" stroke-width="1.5" stroke-linecap="round" stroke-linejoin="round"/>
<path d="M24.9602 24.1196C24.4302 24.4796 23.7302 24.4796 23.2002 24.0996" stroke="white" stroke-width="1.5" stroke-miterlimit="10" stroke-linecap="round" stroke-linejoin="round"/>
<path d="M28.9602 24.1196C28.4302 24.4796 27.7302 24.4796 27.2002 24.0996" stroke="white" stroke-width="1.5" stroke-miterlimit="10" stroke-linecap="round" stroke-linejoin="round"/>
<path d="M23.8398 26.6797H28.1598C28.4598 26.6797 28.6998 26.9196 28.6998 27.2196C28.6998 28.7096 27.4898 29.9197 25.9998 29.9197C24.5098 29.9197 23.2998 28.7096 23.2998 27.2196C23.2998 26.9196 23.5398 26.6797 23.8398 26.6797Z" stroke="white" stroke-width="1.5" stroke-miterlimit="10" stroke-linecap="round" stroke-linejoin="round"/>
</svg>
