<svg width="45" height="45" viewBox="0 0 45 45" fill="none" xmlns="http://www.w3.org/2000/svg">
<rect width="45" height="45" rx="12" fill="#2AA7DF"/>
<path d="M14.9199 30.7804L16.6899 32.1504C16.9199 32.3804 17.4299 32.4903 17.7799 32.4903H19.9499C20.6399 32.4903 21.3799 31.9804 21.5499 31.2904L22.9199 27.1203C23.2099 26.3203 22.6899 25.6303 21.8299 25.6303H19.5399C19.1999 25.6303 18.9099 25.3403 18.9699 24.9403L19.2599 23.1103C19.3699 22.6003 19.0299 22.0203 18.5199 21.8503C18.0599 21.6803 17.4899 21.9103 17.2599 22.2503L14.9199 25.7403" stroke="white" stroke-width="1.5" stroke-miterlimit="10"/>
<path d="M12 30.7799V25.1799C12 24.3799 12.34 24.0898 13.14 24.0898H13.71C14.51 24.0898 14.85 24.3799 14.85 25.1799V30.7799C14.85 31.5799 14.51 31.8699 13.71 31.8699H13.14C12.34 31.8699 12 31.5899 12 30.7799Z" stroke="white" stroke-width="1.5" stroke-linecap="round" stroke-linejoin="round"/>
<path d="M29.0798 14.2197L27.3098 12.8497C27.0798 12.6197 26.5698 12.5098 26.2198 12.5098H24.0498C23.3598 12.5098 22.6198 13.0197 22.4498 13.7097L21.0798 17.8798C20.7898 18.6798 21.3098 19.3698 22.1698 19.3698H24.4598C24.7998 19.3698 25.0898 19.6598 25.0298 20.0598L24.7398 21.8898C24.6298 22.3998 24.9698 22.9798 25.4798 23.1498C25.9398 23.3198 26.5098 23.0898 26.7398 22.7498L29.0798 19.2598" stroke="white" stroke-width="1.5" stroke-miterlimit="10"/>
<path d="M31.9994 14.2198V19.8198C31.9994 20.6198 31.6594 20.9099 30.8594 20.9099H30.2894C29.4894 20.9099 29.1494 20.6198 29.1494 19.8198V14.2198C29.1494 13.4198 29.4894 13.1299 30.2894 13.1299H30.8594C31.6594 13.1299 31.9994 13.4098 31.9994 14.2198Z" stroke="white" stroke-width="1.5" stroke-linecap="round" stroke-linejoin="round"/>
</svg>
