<svg width="77" height="77" viewBox="0 0 77 77" fill="none" xmlns="http://www.w3.org/2000/svg">
<rect width="77" height="77" rx="16" fill="#265BA7" fill-opacity="0.19"/>
<path d="M44.7799 24.919L47.5999 30.559C47.9799 31.339 48.9999 32.079 49.8599 32.239L54.9599 33.079C58.2199 33.619 58.9799 35.979 56.6399 38.339L52.6599 42.319C51.9999 42.979 51.6199 44.279 51.8399 45.219L52.9799 50.139C53.8799 54.019 51.7999 55.539 48.3799 53.499L43.5999 50.659C42.7399 50.139 41.2999 50.139 40.4399 50.659L35.6599 53.499C32.2399 55.519 30.1599 54.019 31.0599 50.139L32.1999 45.219C32.4199 44.299 32.0399 42.999 31.3799 42.319L27.3999 38.339C25.0599 35.999 25.8199 33.639 29.0799 33.079L34.1799 32.239C35.0399 32.099 36.0599 31.339 36.4399 30.559L39.2599 24.919C40.7599 21.859 43.2399 21.859 44.7799 24.919Z" stroke="#265BA7" stroke-width="3" stroke-linecap="round" stroke-linejoin="round"/>
<path d="M30.001 24.501H18.001" stroke="#265BA7" stroke-width="3" stroke-linecap="round" stroke-linejoin="round"/>
<path d="M24.001 52.499H18.001" stroke="#265BA7" stroke-width="3" stroke-linecap="round" stroke-linejoin="round"/>
<path d="M20.001 38.5H18.001" stroke="#265BA7" stroke-width="3" stroke-linecap="round" stroke-linejoin="round"/>
</svg>
