<svg width="77" height="77" viewBox="0 0 77 77" fill="none" xmlns="http://www.w3.org/2000/svg">
<rect width="77" height="77" rx="16" fill="#265BA7" fill-opacity="0.19"/>
<path d="M24.9592 51.4796V45.6396C24.9592 43.6996 26.4792 41.9596 28.6392 41.9596C30.5792 41.9596 32.3192 43.4796 32.3192 45.6396V51.2596C32.3192 55.1596 29.0792 58.3997 25.1792 58.3997C21.2792 58.3997 18.0392 55.1396 18.0392 51.2596V38.9396C17.8192 27.6996 26.6992 18.5996 37.9392 18.5996C49.1792 18.5996 58.0392 27.6996 58.0392 38.7196V51.0397C58.0392 54.9397 54.7992 58.1797 50.8992 58.1797C46.9992 58.1797 43.7592 54.9397 43.7592 51.0397V45.4197C43.7592 43.4797 45.2792 41.7396 47.4392 41.7396C49.3792 41.7396 51.1192 43.2597 51.1192 45.4197V51.4796" stroke="#265BA7" stroke-width="3" stroke-linecap="round" stroke-linejoin="round"/>
<path d="M45.0599 32.74H43.4399C42.9999 32.74 42.5799 33 42.3799 33.38L40.8799 36.38C40.6599 36.82 40.0399 36.82 39.8199 36.38L36.14 29.04C35.92 28.62 35.3199 28.6 35.0999 29.02L33.4199 32.12C33.2199 32.5 32.8199 32.74 32.3799 32.74H30.9199" stroke="#265BA7" stroke-width="3" stroke-linecap="round" stroke-linejoin="round"/>
</svg>
